<?xml version="1.0" standalone="no"?>
<!DOCTYPE svg PUBLIC "-//W3C//DTD SVG 20010904//EN"
 "http://www.w3.org/TR/2001/REC-SVG-20010904/DTD/svg10.dtd">
<svg version="1.0" xmlns="http://www.w3.org/2000/svg"
 width="512.000000pt" height="512.000000pt" viewBox="0 0 512.000000 512.000000"
 preserveAspectRatio="xMidYMid meet">

<g transform="translate(0.000000,512.000000) scale(0.100000,-0.100000)"
fill="#000000" stroke="none">
<path d="M3263 1857 c-178 -178 -183 -184 -183 -224 0 -56 38 -104 316 -403
125 -135 409 -442 631 -682 223 -241 424 -450 450 -467 75 -50 148 -73 233
-72 117 1 204 36 284 117 78 78 116 166 117 275 3 147 -31 210 -193 360 -449
419 -1347 1248 -1368 1262 -13 9 -42 17 -64 17 -39 0 -47 -7 -223 -183z m404
-109 c105 -105 163 -170 163 -183 0 -30 -19 -45 -55 -45 -27 0 -53 22 -188
158 -89 90 -157 166 -157 177 0 26 29 55 54 55 14 0 77 -57 183 -162z"/>
</g>
</svg>
